<svg width="10" height="10" viewBox="0 0 10 10" fill="none" xmlns="http://www.w3.org/2000/svg">
<path d="M0.4024 0.50077L0.447399 0.446911C0.582395 0.311915 0.791947 0.296915 0.943512 0.401912L0.997371 0.446911L5.00016 4.44979L9.00296 0.446911C9.13795 0.311915 9.3475 0.296915 9.49907 0.401912L9.55293 0.446911C9.68792 0.581907 9.70292 0.791459 9.59793 0.943023L9.55293 0.996883L5.55005 4.99967L9.55293 9.00247C9.68792 9.13746 9.70292 9.34702 9.59793 9.49858L9.55293 9.55244C9.41793 9.68744 9.20838 9.70243 9.05682 9.59744L9.00296 9.55244L5.00016 5.54956L0.997371 9.55244C0.862375 9.68744 0.652823 9.70243 0.501258 9.59744L0.447399 9.55244C0.312403 9.41744 0.297403 9.20789 0.4024 9.05633L0.447399 9.00247L4.45027 4.99967L0.447399 0.996883C0.312403 0.861887 0.297403 0.652334 0.4024 0.50077L0.447399 0.446911L0.4024 0.50077Z" fill="#443E3E"/>
</svg>
