<svg width="20" height="18" viewBox="0 0 20 18" fill="none" xmlns="http://www.w3.org/2000/svg">
<g clip-path="url(#clip0_342_2454)">
<path d="M10.5603 16.2322L17.6075 9.32153C19.5085 7.44586 19.5025 4.41659 17.5884 2.53854C15.7118 0.697165 12.7041 0.649556 10.7875 2.4052C10.7461 2.44305 10.7053 2.48175 10.665 2.52127L9.99198 3.18295L9.30969 2.51349C9.27229 2.47679 9.23444 2.4408 9.19615 2.40553C7.27543 0.636137 4.26277 0.663192 2.39459 2.49625C0.48917 4.36584 0.49847 7.40363 2.41216 9.28134L9.49619 16.2322C9.79003 16.5205 10.2664 16.5205 10.5603 16.2322ZM11.4671 3.29262C12.9302 1.85757 15.307 1.85832 16.7864 3.30989C18.2671 4.76275 18.2693 7.10465 16.8044 8.55124L16.8033 8.55236L10.0283 15.196L3.21418 8.51C1.73195 7.05564 1.73057 4.70606 3.1966 3.26759C4.65631 1.83533 7.03154 1.83644 8.50768 3.28483L9.59136 4.34814C9.81233 4.56495 10.173 4.56479 10.3938 4.34777L11.4671 3.29262Z" fill="black"/>
</g>
<defs>
<clipPath id="clip0_342_2454">
<rect width="19.6364" height="18" fill="white"/>
</clipPath>
</defs>
</svg>
