<svg width="23" height="21" viewBox="0 0 23 21" fill="none" xmlns="http://www.w3.org/2000/svg">
<path d="M12.4782 2.67761L11.5422 3.61566L10.6033 2.67677C8.20935 0.282845 4.32803 0.282845 1.93411 2.67677C-0.459808 5.07069 -0.459808 8.952 1.93411 11.3459L10.9385 20.3503C11.2726 20.6844 11.8141 20.6844 12.1482 20.3503L21.1596 11.3443C23.5481 8.94239 23.5522 5.07197 21.1579 2.67761C18.7596 0.279335 14.8764 0.279339 12.4782 2.67761ZM19.9466 10.138L11.5434 18.5359L3.14376 10.1363C1.41791 8.41042 1.41791 5.61227 3.14376 3.88642C4.86961 2.16057 7.66777 2.16057 9.39362 3.88642L10.9417 5.43454C11.2814 5.77424 11.8342 5.76762 12.1657 5.41988L13.6878 3.88726C15.418 2.15706 18.218 2.15706 19.9482 3.88726C21.6745 5.61353 21.6715 8.40338 19.9466 10.138Z" fill="black"/>
</svg>
