<svg width="20" height="18" viewBox="0 0 22 19" fill="none" xmlns="http://www.w3.org/2000/svg">
<path d="M11.6586 18.4999L19.9411 10.3779C22.1753 8.1735 22.1682 4.61324 19.9187 2.406C17.7131 0.241857 14.1782 0.185903 11.9256 2.24929C11.877 2.29377 11.8291 2.33925 11.7817 2.3857L10.9907 3.16336L10.1888 2.37656C10.1448 2.33342 10.1003 2.29113 10.0553 2.24968C7.79795 0.170131 4.25721 0.201929 2.06157 2.35629C-0.17784 4.55359 -0.16691 8.12386 2.08222 10.3307L10.408 18.4999C10.7533 18.8388 11.3132 18.8388 11.6586 18.4999ZM12.7243 3.29225C14.4439 1.60566 17.2374 1.60654 18.9761 3.31255C20.7163 5.02007 20.7189 7.77248 18.9972 9.47264L18.9959 9.47395L11.0334 17.2821L3.02482 9.42416C1.28278 7.71487 1.28116 4.95345 3.00417 3.26284C4.71974 1.57952 7.5113 1.58083 9.24619 3.2831L10.5198 4.53279C10.7795 4.78761 11.2034 4.78741 11.4629 4.53235L12.7243 3.29225Z" fill="#EB2D47"/>
</svg>
