<svg width="24" height="21" viewBox="0 0 24 21" fill="none" xmlns="http://www.w3.org/2000/svg">
<path d="M13.5 13.25C13.5 11.7138 14.5658 10.4265 15.9983 10.0874L16 0.75C16 0.335787 16.3358 0 16.75 0C17.1297 0 17.4435 0.282154 17.4932 0.64823L17.5 0.75L17.5007 10.0871C18.9337 10.4259 20 11.7134 20 13.25C20 14.7866 18.9337 16.0741 17.5007 16.4129L17.5 19.25C17.5 19.6642 17.1642 20 16.75 20C16.3703 20 16.0565 19.7178 16.0068 19.3518L16 19.25L15.9993 16.4129C14.5663 16.0741 13.5 14.7866 13.5 13.25ZM15 13.25C15 14.0141 15.4898 14.6639 16.1725 14.9025L16.2352 14.923L16.3834 14.9615C16.5016 14.9867 16.6242 15 16.75 15C16.9048 15 17.055 14.9799 17.1979 14.9421L17.3279 14.9023L17.3966 14.8766C18.0431 14.6195 18.5 13.9881 18.5 13.25C18.5 12.4862 18.0107 11.8368 17.3285 11.5979L17.1978 11.5578L17.2581 11.5749C17.0973 11.5262 16.9267 11.5 16.75 11.5C16.6452 11.5 16.5425 11.5092 16.4428 11.5269L16.3057 11.5569L16.2353 11.5769L16.1024 11.6237C15.4565 11.8812 15 12.5123 15 13.25ZM4 6.75C4 5.21345 5.06632 3.92594 6.49934 3.58712L6.5 0.75C6.5 0.335787 6.83579 0 7.25 0C7.6297 0 7.94349 0.282154 7.99315 0.64823L8 0.75L8.00066 3.58712C9.43368 3.92594 10.5 5.21345 10.5 6.75C10.5 8.28655 9.43368 9.57405 8.00066 9.91288L8 19.25C8 19.6642 7.66421 20 7.25 20C6.8703 20 6.55651 19.7178 6.50685 19.3518L6.5 19.25L6.49833 9.91264C5.06582 9.57345 4 8.28619 4 6.75ZM5.5 6.75C5.5 7.51414 5.98976 8.16389 6.6725 8.40247L6.73515 8.42304L6.88337 8.46153C7.0016 8.48674 7.12425 8.5 7.25 8.5C7.40483 8.5 7.55497 8.47989 7.69794 8.44215L7.82787 8.40234L7.89664 8.37665C8.54307 8.11945 9 7.48809 9 6.75C9 5.98624 8.51073 5.33676 7.82852 5.09788L7.69781 5.05782L7.75808 5.0749C7.59729 5.02619 7.4267 5 7.25 5C7.14518 5 7.04251 5.00922 6.94275 5.02688L6.80565 5.05691L6.73529 5.07692L6.60236 5.12375C5.95647 5.38119 5.5 6.01229 5.5 6.75Z" fill="#EB2D47"/>
</svg>
