<svg width="16" height="16" viewBox="0 0 16 16" fill="none" xmlns="http://www.w3.org/2000/svg">
<path d="M6.39307 0.767578C9.49967 0.767578 12.0181 3.28598 12.0181 6.39258C12.0181 7.77226 11.5213 9.03592 10.697 10.0145L15.0911 14.4088C15.2794 14.5971 15.2794 14.9024 15.0911 15.0906C14.92 15.2618 14.6521 15.2774 14.4634 15.1373L14.4093 15.0906L10.015 10.6965C9.03641 11.5209 7.77275 12.0176 6.39307 12.0176C3.28646 12.0176 0.768066 9.49918 0.768066 6.39258C0.768066 3.28598 3.28646 0.767578 6.39307 0.767578ZM6.39307 1.73186C3.81902 1.73186 1.73235 3.81854 1.73235 6.39258C1.73235 8.96662 3.81902 11.0533 6.39307 11.0533C8.96711 11.0533 11.0538 8.96662 11.0538 6.39258C11.0538 3.81854 8.96711 1.73186 6.39307 1.73186Z" fill="#999999"/>
</svg>
